<?xml version="1.0" encoding="UTF-8"?>
<svg xmlns="http://www.w3.org/2000/svg" xmlns:xlink="http://www.w3.org/1999/xlink" width="20px" height="21px" viewBox="0 0 20 21" version="1.1">
<g id="surface1">
<path style=" stroke:none;fill-rule:nonzero;fill:rgb(0%,0%,0%);fill-opacity:1;" d="M 8.636719 12.917969 L 3.765625 16.417969 C 3.183594 16.796875 2.726562 17.054688 2.144531 17.054688 C 0.972656 17.054688 0 16.035156 0 14.890625 C 0 13.933594 0.78125 13.234375 1.492188 12.917969 L 7.207031 10.5 L 1.492188 8.019531 C 0.71875 7.699219 0 7 0 6.046875 C 0 4.902344 1.039062 3.945312 2.207031 3.945312 C 2.789062 3.945312 3.179688 4.136719 3.765625 4.582031 L 8.632812 8.082031 L 7.988281 2.417969 C 7.792969 1.082031 8.699219 0.00390625 10 0.00390625 C 11.300781 0.00390625 12.207031 1.019531 12.011719 2.355469 L 11.363281 8.082031 L 16.230469 4.582031 C 16.816406 4.136719 17.273438 3.945312 17.855469 3.945312 C 19.035156 3.957031 19.988281 4.890625 20 6.046875 C 20 7.066406 19.285156 7.699219 18.507812 8.019531 L 12.792969 10.5 L 18.507812 12.917969 C 19.285156 13.234375 20 13.933594 20 14.953125 C 20 16.097656 18.960938 17.054688 17.792969 17.054688 C 17.273438 17.054688 16.820312 16.796875 16.234375 16.417969 L 11.363281 12.917969 L 12.011719 18.582031 C 12.207031 19.917969 11.296875 20.996094 9.996094 20.996094 C 8.699219 20.996094 7.792969 19.980469 7.984375 18.644531 Z M 8.636719 12.917969 "/>
</g>
</svg>
